{"title":"Mako Mermaids S04E01 720p WEBRip x264-TheRival","uid":14755845,"size":421328079,"categoryP":"video","categoryS":"hd___tv_shows","magnet":"?xt=urn:btih:172500a815765549c06f6e78365b337ef32383a3&amp;dn=Mako+Mermaids+S04E01+720p+WEBRip+x264-TheRival&amp;tr=udp%3A%2F%2Ftracker.leechers-paradise.org%3A6969&amp;tr=udp%3A%2F%2Fzer0day.ch%3A1337&amp;tr=udp%3A%2F%2Fopen.demonii.com%3A1337&amp;tr=udp%3A%2F%2Ftracker.coppersurfer.tk%3A6969&amp;tr=udp%3A%2F%2Fexodus.desync.com%3A6969","seeders":3,"leechers":0,"uploader":"TheRival","files":1,"time":1464811847,"description":"Screens: \nhttp://extraimago.com/image/aKxp \nhttp://extraimago.com/image/aKxr \nhttp://extraimago.com/image/aKxG \nhttp://extraimago.com/image/aKxP\r\n\r\nVideo\r\nID : 1\r\nFormat : AVC\r\nFormat/Info : Advanced Video Codec\r\nFormat profile :   \r\nFormat settings, CABAC : Yes\r\nFormat settings, ReFrames : 2 frames\r\nFormat settings, GOP : M=1, N=24\r\nCodec ID : avc1\r\nCodec ID/Info : Advanced Video Coding\r\nDuration : 24mn 19s\r\nSource duration : 24mn 17s\r\nBit rate mode : Variable\r\nBit rate : 2 082 Kbps\r\nMaximum bit rate : 3 315 Kbps\r\nWidth : 1 280 pixels\r\nHeight : 720 pixels\r\nDisplay aspect ratio : 16:9\r\nFrame rate mode : Constant\r\nFrame rate : 23.976 (23976/1000) fps\r\nColor space : YUV\r\nChroma subsampling : 4:2:0\r\nBit depth : 8 bits\r\nScan type : Progressive\r\nBits/(Pixel*Frame) : 0.094\r\nStream size : 362 MiB (90%)\r\nSource stream size : 379 MiB (94%)\r\nEncoded date : UTC 2016-06-01 17:49:37\r\nTagged date : UTC 2016-06-01 17:52:08\r\nColor primaries : BT.709\r\nTransfer characteristics : BT.709\r\nMatrix coefficients : BT.709\r\n\r\nAudio\r\nID : 2\r\nFormat : AAC\r\nFormat/Info : Advanced Audio Codec\r\nFormat profile : LC\r\nCodec ID : 40\r\nDuration : 24mn 17s\r\nBit rate mode : Variable\r\nBit rate : 128 Kbps\r\nMaximum bit rate : 132 Kbps\r\nChannel(s) : 2 channels\r\nChannel positions : Front: L R\r\nSampling rate : 48.0 KHz\r\nFrame rate : 46.875 fps (1024 spf)\r\nCompression mode : Lossy\r\nStream size : 22.2 MiB (6%)\r\nTitle : English (aac 2.0)\r\nLanguage : English\r\nDefault : Yes\r\nAlternate group : 1","torrent":{"xt":"urn:btih:172500a815765549c06f6e78365b337ef32383a3","amp;dn":"Mako+Mermaids+S04E01+720p+WEBRip+x264-TheRival","amp;tr":["udp%3A%2F%2Ftracker.leechers-paradise.org%3A6969","udp%3A%2F%2Fzer0day.ch%3A1337","udp%3A%2F%2Fopen.demonii.com%3A1337","udp%3A%2F%2Ftracker.coppersurfer.tk%3A6969","udp%3A%2F%2Fexodus.desync.com%3A6969"],"infoHash":"172500a815765549c06f6e78365b337ef32383a3","infoHashBuffer":{"type":"Buffer","data":[23,37,0,168,21,118,85,73,192,111,110,120,54,91,51,126,243,35,131,163]},"announce":[],"urlList":[]}}